<?xml version="1.0" standalone="no"?>
<!DOCTYPE svg PUBLIC "-//W3C//DTD SVG 20010904//EN"
 "http://www.w3.org/TR/2001/REC-SVG-20010904/DTD/svg10.dtd">
<svg version="1.0" xmlns="http://www.w3.org/2000/svg"
 width="300.000000pt" height="300.000000pt" viewBox="0 0 300.000000 300.000000"
 preserveAspectRatio="xMidYMid meet">
<metadata>
Created by potrace 1.11, written by Peter Selinger 2001-2013
</metadata>
<g transform="translate(0.000000,300.000000) scale(0.100000,-0.100000)"
fill="#000000" stroke="none">
<path d="M517 2280 c-33 -26 -64 -109 -84 -229 -14 -79 -17 -175 -17 -533 l-1
-436 -24 -26 c-13 -14 -44 -35 -68 -47 -23 -11 -43 -27 -43 -35 0 -12 62 -67
119 -105 l24 -15 -29 -33 -30 -33 -108 51 c-117 55 -139 61 -134 34 2 -10 45
-37 108 -68 l104 -52 -62 -42 c-34 -23 -62 -48 -62 -57 0 -8 37 -53 83 -101
l82 -86 -163 7 c-146 7 -163 6 -168 -9 -4 -10 -1 -21 7 -26 8 -5 101 -9 208
-9 188 0 194 -1 177 -19 -9 -10 -32 -27 -51 -37 -43 -23 -45 -49 -5 -72 36
-20 37 -25 7 -41 -13 -7 -39 -32 -58 -56 -25 -33 -47 -49 -84 -61 -73 -24 -85
-32 -78 -50 6 -16 33 -15 75 1 15 6 17 1 11 -44 -6 -49 -5 -51 19 -51 22 0 26
5 31 39 7 54 31 101 76 148 57 59 102 77 202 81 110 5 169 -18 234 -90 40 -45
75 -121 75 -165 0 -7 11 -13 26 -13 25 0 25 2 19 43 -14 83 -65 165 -135 216
-21 15 -37 30 -35 33 2 2 -22 10 -55 17 -32 7 -66 21 -75 31 -24 26 -15 69 18
94 24 18 43 21 125 21 85 0 101 -3 130 -23 34 -25 43 -67 20 -90 -18 -18 1
-15 72 13 159 62 315 191 393 325 114 197 163 426 155 727 l-5 171 56 7 c113
14 187 64 240 162 20 37 32 49 54 51 26 3 26 2 17 -24 -22 -56 -28 -103 -16
-113 8 -7 56 -5 141 4 183 21 172 25 120 -47 -25 -34 -45 -68 -45 -75 0 -24
146 -84 274 -112 l79 -17 -57 -61 c-31 -33 -56 -67 -56 -74 1 -18 176 -221
238 -276 46 -41 47 -42 27 -58 -11 -9 -39 -25 -62 -36 -23 -11 -45 -23 -47
-28 -3 -5 13 -34 35 -65 l41 -57 -86 -39 c-53 -24 -86 -46 -86 -55 0 -23 19
-19 114 25 l88 41 32 -28 c17 -15 42 -35 55 -43 l23 -16 -72 -68 c-81 -76
-135 -105 -196 -106 -39 0 -72 -19 -57 -33 3 -4 19 -7 35 -7 19 0 44 -13 76
-42 26 -24 49 -44 51 -45 3 -2 -1 -9 -8 -16 -8 -8 -45 -11 -127 -9 -109 4
-118 2 -170 -24 -97 -49 -175 -151 -189 -247 -7 -45 -6 -47 18 -47 21 0 25 6
31 41 14 86 81 170 166 208 63 29 187 29 250 0 85 -38 152 -122 166 -208 6
-35 10 -41 32 -41 24 0 24 1 18 51 -6 47 -5 51 11 45 10 -4 30 -10 46 -13 22
-5 27 -2 27 15 0 16 -13 24 -59 40 -46 15 -71 33 -119 83 -34 34 -61 63 -59
64 32 16 57 39 57 53 0 10 -15 26 -35 36 -19 10 -42 27 -51 37 -17 18 -11 19
177 19 107 0 200 4 208 9 8 5 11 16 8 26 -6 15 -23 16 -171 9 l-164 -7 84 86
c46 47 84 93 84 104 -1 11 -24 33 -63 57 l-62 39 105 51 c63 31 106 59 108 69
5 27 -17 21 -132 -34 -105 -49 -108 -50 -128 -32 -42 38 -40 47 23 93 32 23
63 48 69 55 15 18 3 42 -24 49 -12 3 -39 20 -61 39 l-39 33 0 460 c-1 395 -4
472 -19 549 -33 170 -80 229 -163 206 -80 -22 -263 -150 -434 -305 -52 -47
-97 -82 -101 -78 -3 4 -11 26 -18 50 -12 43 -78 121 -131 154 l-24 15 27 32
c47 56 30 97 -43 107 -62 8 -123 -10 -154 -46 -14 -18 -34 -30 -48 -30 -13 0
-32 -6 -43 -14 -11 -7 -45 -21 -77 -30 -95 -27 -195 -122 -214 -201 -4 -16 -9
-33 -11 -38 -2 -4 -43 28 -91 72 -204 186 -406 321 -481 321 -10 0 -30 -9 -44
-20z m1952 -49 c20 -20 35 -65 52 -155 6 -28 12 -173 16 -322 l6 -271 -28 -5
c-15 -3 -28 -1 -30 6 -2 6 -6 101 -8 211 -5 217 -22 323 -59 371 -19 23 -26
26 -69 22 -58 -6 -158 -66 -272 -163 -73 -62 -80 -66 -122 -63 l-44 3 116 100
c156 135 255 209 337 250 38 19 73 35 77 35 5 0 18 -9 28 -19z m-966 -108 c-7
-2 -19 -2 -25 0 -7 3 -2 5 12 5 14 0 19 -2 13 -5z m-91 -25 c3 -8 29 -12 73
-12 44 0 70 4 73 12 12 36 150 -24 206 -90 98 -114 61 -278 -78 -351 -33 -17
-64 -22 -156 -25 -161 -6 -209 6 -275 71 -79 77 -95 159 -51 252 28 59 63 94
131 128 56 29 72 32 77 15z m-677 -94 c66 -39 223 -164 271 -216 18 -18 35
-43 39 -56 6 -21 4 -22 -32 -17 -202 28 -288 31 -296 11 -3 -8 18 -49 49 -91
30 -43 53 -79 50 -82 -11 -11 -202 -73 -225 -73 l-24 0 7 198 c6 197 16 283
37 334 16 39 51 36 124 -8z m1662 -7 c20 -61 33 -200 33 -364 0 -152 0 -153
-22 -153 -22 0 -214 63 -224 73 -3 3 20 40 50 82 31 43 56 82 56 87 0 5 -8 12
-17 15 -16 6 -254 -13 -302 -24 -21 -5 -22 -3 -16 18 8 30 91 108 210 199 161
122 210 136 232 67z m138 -835 c-4 -12 -10 -10 -30 8 -23 21 -25 31 -25 104 0
74 2 82 28 109 l27 28 3 -117 c1 -65 0 -124 -3 -132z m-108 106 c-3 -8 -6 -5
-6 6 -1 11 2 17 5 13 3 -3 4 -12 1 -19z m-1569 -385 c-35 -38 -48 -66 -48
-102 0 -41 17 -81 48 -113 23 -25 24 -28 6 -28 -58 0 -204 102 -204 143 0 29
85 91 152 112 66 21 75 19 46 -12z m303 -9 c48 -24 109 -85 109 -108 0 -24
-76 -83 -134 -105 -80 -30 -97 -28 -64 7 31 32 48 72 48 113 0 36 -13 64 -49
103 l-26 28 35 -7 c19 -4 56 -18 81 -31z"/>
<path d="M1620 1985 c0 -10 7 -15 18 -13 21 4 19 22 -2 26 -10 2 -16 -3 -16
-13z"/>
<path d="M1727 1964 c-9 -10 2 -24 19 -24 8 0 14 7 14 15 0 15 -21 21 -33 9z"/>
<path d="M1640 1875 c0 -8 7 -15 15 -15 8 0 15 7 15 15 0 8 -7 15 -15 15 -8 0
-15 -7 -15 -15z"/>
<path d="M1710 1834 c0 -9 7 -14 17 -12 25 5 28 28 4 28 -12 0 -21 -6 -21 -16z"/>
<path d="M1600 1770 c0 -11 7 -20 15 -20 8 0 15 9 15 20 0 11 -7 20 -15 20 -8
0 -15 -9 -15 -20z"/>
<path d="M1662 1728 c7 -19 38 -22 38 -4 0 10 -9 16 -21 16 -12 0 -19 -5 -17
-12z"/>
<path d="M1530 1685 c0 -8 7 -15 15 -15 8 0 15 7 15 15 0 8 -7 15 -15 15 -8 0
-15 -7 -15 -15z"/>
<path d="M1908 944 c-81 -19 -127 -45 -176 -98 -30 -32 -42 -54 -42 -75 0 -65
112 -145 239 -172 76 -16 213 -6 278 19 29 11 71 34 94 51 78 57 98 114 58
165 -79 100 -285 151 -451 110z m20 -61 c-35 -38 -48 -66 -48 -102 0 -41 17
-81 48 -113 33 -35 16 -37 -64 -7 -58 22 -134 81 -134 105 0 36 95 112 170
135 48 14 55 10 28 -18z m298 -3 c47 -20 114 -76 114 -96 0 -42 -145 -144
-204 -144 -18 0 -17 3 6 28 31 32 48 72 48 113 0 36 -13 64 -49 103 l-26 28
35 -7 c19 -4 53 -15 76 -25z"/>
<path d="M1174 406 c-10 -25 25 -75 68 -97 60 -31 140 -23 207 19 l51 31 49
-30 c27 -17 67 -33 90 -36 34 -5 47 -13 69 -44 15 -22 33 -38 41 -36 9 1 21
25 29 57 7 30 20 62 28 71 19 21 23 70 7 76 -6 2 -19 -9 -28 -26 -18 -35 -61
-61 -103 -61 -48 0 -120 30 -146 61 -14 16 -30 29 -36 29 -6 0 -22 -13 -36
-29 -26 -31 -98 -61 -146 -61 -41 0 -85 26 -103 60 -17 32 -32 38 -41 16z
m576 -127 c0 -18 -2 -19 -15 -9 -15 12 -12 30 6 30 5 0 9 -10 9 -21z"/>
<path d="M467 104 c-4 -4 -7 -29 -7 -56 0 -45 2 -48 26 -48 24 0 25 2 22 52
-2 38 -7 54 -18 56 -9 1 -19 0 -23 -4z"/>
<path d="M687 104 c-4 -4 -7 -29 -7 -56 0 -45 2 -48 26 -48 24 0 25 2 22 52
-2 38 -7 54 -18 56 -9 1 -19 0 -23 -4z"/>
<path d="M2277 104 c-4 -4 -7 -29 -7 -56 0 -45 2 -48 26 -48 24 0 25 2 22 52
-2 38 -7 54 -18 56 -9 1 -19 0 -23 -4z"/>
<path d="M2497 104 c-4 -4 -7 -29 -7 -56 0 -45 2 -48 26 -48 24 0 25 2 22 52
-2 38 -7 54 -18 56 -9 1 -19 0 -23 -4z"/>
</g>
</svg>
